<?xml version="1.0" encoding="UTF-8" standalone="no"?>
<!-- Created with Inkscape (http://www.inkscape.org/) -->

<svg
   xmlns:dc="http://purl.org/dc/elements/1.1/"
   xmlns:cc="http://creativecommons.org/ns#"
   xmlns:rdf="http://www.w3.org/1999/02/22-rdf-syntax-ns#"
   xmlns:svg="http://www.w3.org/2000/svg"
   xmlns="http://www.w3.org/2000/svg"
   xmlns:xlink="http://www.w3.org/1999/xlink"
   xmlns:sodipodi="http://sodipodi.sourceforge.net/DTD/sodipodi-0.dtd"
   xmlns:inkscape="http://www.inkscape.org/namespaces/inkscape"
   width="530.57776mm"
   height="530.57776mm"
   viewBox="0 0 1879.9999 1879.9999"
   id="svg2"
   version="1.1"
   inkscape:version="0.91 r13725"
   sodipodi:docname="icon.svg"
   inkscape:export-filename="/media/jojo/3AC28E5CC28E1C6F/_Data/Cells/NicoTracks/WebGl/icon/icon.svg.png"
   inkscape:export-xdpi="47.872345"
   inkscape:export-ydpi="47.872345">
  <defs
     id="defs4">
    <linearGradient
       inkscape:collect="always"
       id="linearGradient4235">
      <stop
         style="stop-color:#ff0042;stop-opacity:1;"
         offset="0"
         id="stop4237" />
      <stop
         style="stop-color:#000000;stop-opacity:0"
         offset="1"
         id="stop4239" />
    </linearGradient>
    <linearGradient
       inkscape:collect="always"
       id="linearGradient4428">
      <stop
         style="stop-color:#68c8ea;stop-opacity:1"
         offset="0"
         id="stop4430" />
      <stop
         style="stop-color:#007fb9;stop-opacity:1"
         offset="1"
         id="stop4432" />
    </linearGradient>
    <filter
       inkscape:collect="always"
       style="color-interpolation-filters:sRGB"
       id="filter4294"
       x="-0.0348"
       width="1.0696"
       y="-0.0348"
       height="1.0696">
      <feGaussianBlur
         inkscape:collect="always"
         stdDeviation="4.7179601"
         id="feGaussianBlur4296" />
    </filter>
    <linearGradient
       inkscape:collect="always"
       xlink:href="#linearGradient4428"
       id="linearGradient4436"
       x1="-13887.888"
       y1="2242.9807"
       x2="-11371.492"
       y2="227.72643"
       gradientUnits="userSpaceOnUse" />
    <linearGradient
       inkscape:collect="always"
       xlink:href="#linearGradient4235"
       id="linearGradient4241"
       x1="-12468.226"
       y1="3071.1089"
       x2="-13565.025"
       y2="1599.443"
       gradientUnits="userSpaceOnUse"
       gradientTransform="translate(1.7520638,15.515352)" />
    <linearGradient
       inkscape:collect="always"
       xlink:href="#linearGradient4235"
       id="linearGradient4264"
       x1="-13390.208"
       y1="983.49915"
       x2="-12384.22"
       y2="2995.7075"
       gradientUnits="userSpaceOnUse" />
  </defs>
  <sodipodi:namedview
     id="base"
     pagecolor="#ffffff"
     bordercolor="#666666"
     borderopacity="1.0"
     inkscape:pageopacity="0.0"
     inkscape:pageshadow="2"
     inkscape:zoom="0.028284271"
     inkscape:cx="2544.9001"
     inkscape:cy="-5334.8942"
     inkscape:document-units="px"
     inkscape:current-layer="layer1"
     showgrid="false"
     inkscape:window-width="1865"
     inkscape:window-height="1056"
     inkscape:window-x="1735"
     inkscape:window-y="24"
     inkscape:window-maximized="1"
     borderlayer="true"
     inkscape:showpageshadow="false"
     fit-margin-top="0"
     fit-margin-left="0"
     fit-margin-right="0"
     fit-margin-bottom="0" />
  <metadata
     id="metadata7">
    <rdf:RDF>
      <cc:Work
         rdf:about="">
        <dc:format>image/svg+xml</dc:format>
        <dc:type
           rdf:resource="http://purl.org/dc/dcmitype/StillImage" />
        <dc:title></dc:title>
      </cc:Work>
    </rdf:RDF>
  </metadata>
  <g
     inkscape:label="Layer 1"
     inkscape:groupmode="layer"
     id="layer1"
     transform="translate(13976.276,-383.74194)">
    <rect
       style="opacity:1;fill:#ffffff;fill-opacity:1;fill-rule:nonzero;stroke:#ffffff;stroke-width:142.51646423;stroke-linecap:round;stroke-miterlimit:4;stroke-dasharray:none;stroke-dashoffset:21.60000038;stroke-opacity:1"
       id="rect4446"
       width="5694.9834"
       height="3682.4836"
       x="-16955.018"
       y="2335" />
    <rect
       style="opacity:1;fill:#808080;fill-opacity:1;fill-rule:nonzero;stroke:none;stroke-width:18.45800018;stroke-linecap:round;stroke-miterlimit:4;stroke-dasharray:none;stroke-dashoffset:21.60000038;stroke-opacity:1"
       id="rect4133-62-6"
       width="469.56161"
       height="67.080231"
       x="1409.8781"
       y="858.01227"
       transform="matrix(-0.5,0.8660254,0.8660254,0.5,0,0)" />
    <rect
       style="opacity:1;fill:#808080;fill-opacity:1;fill-rule:nonzero;stroke:none;stroke-width:18.45800018;stroke-linecap:round;stroke-miterlimit:4;stroke-dasharray:none;stroke-dashoffset:21.60000038;stroke-opacity:1"
       id="rect4133-9-0"
       width="469.56161"
       height="67.080231"
       x="1450.7544"
       y="787.21234"
       transform="matrix(-0.5,0.8660254,0.8660254,0.5,0,0)" />
    <rect
       style="opacity:1;fill:#0c2430;fill-opacity:1;fill-rule:nonzero;stroke:none;stroke-width:18.45800018;stroke-linecap:round;stroke-miterlimit:4;stroke-dasharray:none;stroke-dashoffset:21.60000038;stroke-opacity:1"
       id="rect4133"
       width="469.56161"
       height="67.080231"
       x="1320.9799"
       y="1019.272"
       transform="matrix(0.5,0.8660254,-0.8660254,0.5,0,0)" />
    <rect
       style="opacity:1;fill:#808080;fill-opacity:1;fill-rule:nonzero;stroke:none;stroke-width:18.45800018;stroke-linecap:round;stroke-miterlimit:4;stroke-dasharray:none;stroke-dashoffset:21.60000038;stroke-opacity:1"
       id="rect4133-35-3"
       width="469.56161"
       height="67.080231"
       x="1369.0017"
       y="928.81226"
       transform="matrix(-0.5,0.8660254,0.8660254,0.5,0,0)" />
    <rect
       style="opacity:1;fill:#808080;fill-opacity:1;fill-rule:nonzero;stroke:none;stroke-width:18.45800018;stroke-linecap:round;stroke-miterlimit:4;stroke-dasharray:none;stroke-dashoffset:21.60000038;stroke-opacity:1"
       id="rect4133-5-9"
       width="469.56161"
       height="67.080231"
       x="1328.1254"
       y="999.61224"
       transform="matrix(-0.5,0.8660254,0.8660254,0.5,0,0)" />
    <rect
       style="opacity:1;fill:#0c2430;fill-opacity:1;fill-rule:nonzero;stroke:none;stroke-width:18.45800018;stroke-linecap:round;stroke-miterlimit:4;stroke-dasharray:none;stroke-dashoffset:21.60000038;stroke-opacity:1"
       id="rect4133-3"
       width="469.56161"
       height="67.080231"
       x="1361.8562"
       y="948.47205"
       transform="matrix(0.5,0.8660254,-0.8660254,0.5,0,0)" />
    <rect
       style="opacity:1;fill:#0c2430;fill-opacity:1;fill-rule:nonzero;stroke:none;stroke-width:18.45800018;stroke-linecap:round;stroke-miterlimit:4;stroke-dasharray:none;stroke-dashoffset:21.60000038;stroke-opacity:1"
       id="rect4133-6"
       width="469.56161"
       height="67.080231"
       x="1402.7327"
       y="877.67206"
       transform="matrix(0.5,0.8660254,-0.8660254,0.5,0,0)" />
    <rect
       style="opacity:1;fill:#0c2430;fill-opacity:1;fill-rule:nonzero;stroke:none;stroke-width:18.45800018;stroke-linecap:round;stroke-miterlimit:4;stroke-dasharray:none;stroke-dashoffset:21.60000038;stroke-opacity:1"
       id="rect4133-7"
       width="469.56161"
       height="67.080231"
       x="1443.609"
       y="806.87207"
       transform="matrix(0.5,0.8660254,-0.8660254,0.5,0,0)" />
    <rect
       style="opacity:1;fill:#0c2430;fill-opacity:1;fill-rule:nonzero;stroke:none;stroke-width:18.45800018;stroke-linecap:round;stroke-miterlimit:4;stroke-dasharray:none;stroke-dashoffset:21.60000038;stroke-opacity:1"
       id="rect4133-5"
       width="469.56161"
       height="67.080231"
       x="1484.4855"
       y="736.07208"
       transform="matrix(0.5,0.8660254,-0.8660254,0.5,0,0)" />
    <rect
       style="opacity:1;fill:#808080;fill-opacity:1;fill-rule:nonzero;stroke:none;stroke-width:18.45800018;stroke-linecap:round;stroke-miterlimit:4;stroke-dasharray:none;stroke-dashoffset:21.60000038;stroke-opacity:1"
       id="rect4133-3-2"
       width="469.56161"
       height="67.080231"
       x="1205.4961"
       y="1212.0122"
       transform="matrix(-0.5,0.8660254,0.8660254,0.5,0,0)" />
    <rect
       style="opacity:1;fill:#0c2430;fill-opacity:1;fill-rule:nonzero;stroke:none;stroke-width:18.45800018;stroke-linecap:round;stroke-miterlimit:4;stroke-dasharray:none;stroke-dashoffset:21.60000038;stroke-opacity:1"
       id="rect4133-35"
       width="469.56161"
       height="67.080231"
       x="1525.3618"
       y="665.27209"
       transform="matrix(0.5,0.8660254,-0.8660254,0.5,0,0)" />
    <rect
       style="opacity:1;fill:#808080;fill-opacity:1;fill-rule:nonzero;stroke:none;stroke-width:18.45800018;stroke-linecap:round;stroke-miterlimit:4;stroke-dasharray:none;stroke-dashoffset:21.60000038;stroke-opacity:1"
       id="rect4133-6-7"
       width="469.56161"
       height="67.080231"
       x="1246.3724"
       y="1141.2123"
       transform="matrix(-0.5,0.8660254,0.8660254,0.5,0,0)" />
    <rect
       style="opacity:1;fill:#0c2430;fill-opacity:1;fill-rule:nonzero;stroke:none;stroke-width:18.45800018;stroke-linecap:round;stroke-miterlimit:4;stroke-dasharray:none;stroke-dashoffset:21.60000038;stroke-opacity:1"
       id="rect4133-62"
       width="469.56161"
       height="67.080231"
       x="1566.2383"
       y="594.47217"
       transform="matrix(0.5,0.8660254,-0.8660254,0.5,0,0)" />
    <rect
       style="opacity:1;fill:#0c2430;fill-opacity:1;fill-rule:nonzero;stroke:none;stroke-width:18.45800018;stroke-linecap:round;stroke-miterlimit:4;stroke-dasharray:none;stroke-dashoffset:21.60000038;stroke-opacity:1"
       id="rect4133-9"
       width="469.56161"
       height="67.080231"
       x="1607.1146"
       y="523.67218"
       transform="matrix(0.5,0.8660254,-0.8660254,0.5,0,0)" />
    <rect
       style="opacity:1;fill:#808080;fill-opacity:1;fill-rule:nonzero;stroke:none;stroke-width:18.45800018;stroke-linecap:round;stroke-miterlimit:4;stroke-dasharray:none;stroke-dashoffset:21.60000038;stroke-opacity:1"
       id="rect4133-7-0"
       width="469.56161"
       height="67.080231"
       x="1287.2489"
       y="1070.4124"
       transform="matrix(-0.5,0.8660254,0.8660254,0.5,0,0)" />
    <rect
       style="opacity:1;fill:#808080;fill-opacity:1;fill-rule:nonzero;stroke:none;stroke-width:18.45800018;stroke-linecap:round;stroke-miterlimit:4;stroke-dasharray:none;stroke-dashoffset:21.60000038;stroke-opacity:1"
       id="rect4133-1"
       width="469.56161"
       height="67.080231"
       x="1164.6198"
       y="1282.8123"
       transform="matrix(-0.5,0.8660254,0.8660254,0.5,0,0)" />
    <rect
       style="opacity:1;fill:#14445c;fill-opacity:1;fill-rule:nonzero;stroke:none;stroke-width:18.45800018;stroke-linecap:round;stroke-miterlimit:4;stroke-dasharray:none;stroke-dashoffset:21.60000038;stroke-opacity:1"
       id="rect4259-97"
       width="20.486727"
       height="521.68268"
       x="-1242.8749"
       y="2591.262"
       transform="matrix(0.70710678,0.70710678,-0.70710678,0.70710678,0,0)" />
    <rect
       style="opacity:1;fill:#14445c;fill-opacity:1;fill-rule:nonzero;stroke:none;stroke-width:18.45800018;stroke-linecap:round;stroke-miterlimit:4;stroke-dasharray:none;stroke-dashoffset:21.60000038;stroke-opacity:1"
       id="rect4259-6"
       width="20.486727"
       height="521.68268"
       x="-1151.7854"
       y="2591.262"
       transform="matrix(0.70710678,0.70710678,-0.70710678,0.70710678,0,0)" />
    <rect
       style="opacity:1;fill:#14445c;fill-opacity:1;fill-rule:nonzero;stroke:none;stroke-width:18.45800018;stroke-linecap:round;stroke-miterlimit:4;stroke-dasharray:none;stroke-dashoffset:21.60000038;stroke-opacity:1"
       id="rect4259-61"
       width="20.486727"
       height="521.68268"
       x="-1197.3301"
       y="2591.262"
       transform="matrix(0.70710678,0.70710678,-0.70710678,0.70710678,0,0)" />
    <rect
       style="opacity:1;fill:#14445c;fill-opacity:1;fill-rule:nonzero;stroke:none;stroke-width:18.45800018;stroke-linecap:round;stroke-miterlimit:4;stroke-dasharray:none;stroke-dashoffset:21.60000038;stroke-opacity:1"
       id="rect4259-50"
       width="20.486727"
       height="521.68268"
       x="-1106.2407"
       y="2591.262"
       transform="matrix(0.70710678,0.70710678,-0.70710678,0.70710678,0,0)" />
    <rect
       style="opacity:1;fill:#14445c;fill-opacity:1;fill-rule:nonzero;stroke:none;stroke-width:18.45800018;stroke-linecap:round;stroke-miterlimit:4;stroke-dasharray:none;stroke-dashoffset:21.60000038;stroke-opacity:1"
       id="rect4259-31"
       width="20.486727"
       height="521.68268"
       x="-1060.6959"
       y="2591.262"
       transform="matrix(0.70710678,0.70710678,-0.70710678,0.70710678,0,0)" />
    <rect
       style="opacity:1;fill:#14445c;fill-opacity:1;fill-rule:nonzero;stroke:none;stroke-width:18.45800018;stroke-linecap:round;stroke-miterlimit:4;stroke-dasharray:none;stroke-dashoffset:21.60000038;stroke-opacity:1"
       id="rect4259-94"
       width="20.486727"
       height="521.68268"
       x="-1015.1512"
       y="2591.262"
       transform="matrix(0.70710678,0.70710678,-0.70710678,0.70710678,0,0)" />
    <rect
       style="opacity:1;fill:#14445c;fill-opacity:1;fill-rule:nonzero;stroke:none;stroke-width:18.45800018;stroke-linecap:round;stroke-miterlimit:4;stroke-dasharray:none;stroke-dashoffset:21.60000038;stroke-opacity:1"
       id="rect4259-7"
       width="20.486727"
       height="521.68268"
       x="-969.60645"
       y="2591.262"
       transform="matrix(0.70710678,0.70710678,-0.70710678,0.70710678,0,0)" />
    <rect
       style="opacity:1;fill:#ff0c2f;fill-opacity:1;fill-rule:nonzero;stroke:none;stroke-width:18.45800018;stroke-linecap:round;stroke-miterlimit:4;stroke-dasharray:none;stroke-dashoffset:21.60000038;stroke-opacity:1"
       id="rect4259-20-4-3-7"
       width="403.56256"
       height="134.75934"
       x="-1202.92"
       y="2911.6494"
       transform="matrix(0.70710678,0.70710678,-0.70710678,0.70710678,0,0)" />
    <rect
       style="opacity:1;fill:#14445c;fill-opacity:1;fill-rule:nonzero;stroke:none;stroke-width:18.45800018;stroke-linecap:round;stroke-miterlimit:4;stroke-dasharray:none;stroke-dashoffset:21.60000038;stroke-opacity:1"
       id="rect4259-28"
       width="20.486727"
       height="521.68268"
       x="-1288.4196"
       y="2591.262"
       transform="matrix(0.70710678,0.70710678,-0.70710678,0.70710678,0,0)" />
    <rect
       style="opacity:1;fill:#14445c;fill-opacity:1;fill-rule:nonzero;stroke:none;stroke-width:18.45800018;stroke-linecap:round;stroke-miterlimit:4;stroke-dasharray:none;stroke-dashoffset:21.60000038;stroke-opacity:1"
       id="rect4259-63"
       width="20.486727"
       height="521.68268"
       x="-1333.9642"
       y="2591.262"
       transform="matrix(0.70710678,0.70710678,-0.70710678,0.70710678,0,0)" />
    <rect
       style="opacity:1;fill:#14445c;fill-opacity:1;fill-rule:nonzero;stroke:none;stroke-width:18.45800018;stroke-linecap:round;stroke-miterlimit:4;stroke-dasharray:none;stroke-dashoffset:21.60000038;stroke-opacity:1"
       id="rect4259-20"
       width="20.486727"
       height="521.68268"
       x="-1379.5089"
       y="2591.262"
       transform="matrix(0.70710678,0.70710678,-0.70710678,0.70710678,0,0)" />
    <rect
       style="opacity:1;fill:#14445c;fill-opacity:1;fill-rule:nonzero;stroke:none;stroke-width:18.45800018;stroke-linecap:round;stroke-miterlimit:4;stroke-dasharray:none;stroke-dashoffset:21.60000038;stroke-opacity:1"
       id="rect4259"
       width="20.486727"
       height="521.68268"
       x="-1425.0538"
       y="2591.262"
       transform="matrix(0.70710678,0.70710678,-0.70710678,0.70710678,0,0)" />
    <rect
       style="opacity:1;fill:#ff0c2f;fill-opacity:1;fill-rule:nonzero;stroke:none;stroke-width:18.45800018;stroke-linecap:round;stroke-miterlimit:4;stroke-dasharray:none;stroke-dashoffset:21.60000038;stroke-opacity:1"
       id="rect4259-20-4"
       width="506.60553"
       height="91.741104"
       x="938.17218"
       y="1393.8851" />
    <rect
       style="opacity:1;fill:#ff0c2f;fill-opacity:1;fill-rule:nonzero;stroke:none;stroke-width:18.45800018;stroke-linecap:round;stroke-miterlimit:4;stroke-dasharray:none;stroke-dashoffset:21.60000038;stroke-opacity:1"
       id="rect4259-20-4-3"
       width="403.56256"
       height="134.75934"
       x="-1436.0508"
       y="2650.7371"
       transform="matrix(0.70710678,0.70710678,-0.70710678,0.70710678,0,0)" />
    <rect
       style="opacity:1;fill:#14445c;fill-opacity:1;fill-rule:nonzero;stroke:none;stroke-width:18.45800018;stroke-linecap:round;stroke-miterlimit:4;stroke-dasharray:none;stroke-dashoffset:21.60000038;stroke-opacity:1"
       id="rect4259-5"
       width="20.486727"
       height="521.68268"
       x="-1402.2814"
       y="2591.262"
       transform="matrix(0.70710678,0.70710678,-0.70710678,0.70710678,0,0)" />
    <rect
       style="opacity:1;fill:#14445c;fill-opacity:1;fill-rule:nonzero;stroke:none;stroke-width:18.45800018;stroke-linecap:round;stroke-miterlimit:4;stroke-dasharray:none;stroke-dashoffset:21.60000038;stroke-opacity:1"
       id="rect4259-9"
       width="20.486727"
       height="521.68268"
       x="-1356.7367"
       y="2591.262"
       transform="matrix(0.70710678,0.70710678,-0.70710678,0.70710678,0,0)" />
    <rect
       style="opacity:1;fill:#14445c;fill-opacity:1;fill-rule:nonzero;stroke:none;stroke-width:18.45800018;stroke-linecap:round;stroke-miterlimit:4;stroke-dasharray:none;stroke-dashoffset:21.60000038;stroke-opacity:1"
       id="rect4259-2"
       width="20.486727"
       height="521.68268"
       x="-1311.192"
       y="2591.262"
       transform="matrix(0.70710678,0.70710678,-0.70710678,0.70710678,0,0)" />
    <rect
       style="opacity:1;fill:#14445c;fill-opacity:1;fill-rule:nonzero;stroke:none;stroke-width:18.45800018;stroke-linecap:round;stroke-miterlimit:4;stroke-dasharray:none;stroke-dashoffset:21.60000038;stroke-opacity:1"
       id="rect4259-10"
       width="20.486727"
       height="521.68268"
       x="-1265.6473"
       y="2591.262"
       transform="matrix(0.70710678,0.70710678,-0.70710678,0.70710678,0,0)" />
    <rect
       style="opacity:1;fill:#ff0c2f;fill-opacity:1;fill-rule:nonzero;stroke:none;stroke-width:18.45800018;stroke-linecap:round;stroke-miterlimit:4;stroke-dasharray:none;stroke-dashoffset:21.60000038;stroke-opacity:1"
       id="rect4259-20-4-3-7-4"
       width="187.6664"
       height="134.75934"
       x="-1210.0146"
       y="2778.2834"
       transform="matrix(0.70710678,0.70710678,-0.70710678,0.70710678,0,0)" />
    <rect
       style="opacity:1;fill:#14445c;fill-opacity:1;fill-rule:nonzero;stroke:none;stroke-width:18.45800018;stroke-linecap:round;stroke-miterlimit:4;stroke-dasharray:none;stroke-dashoffset:21.60000038;stroke-opacity:1"
       id="rect4259-4"
       width="20.486727"
       height="521.68268"
       x="-1037.9237"
       y="2591.262"
       transform="matrix(0.70710678,0.70710678,-0.70710678,0.70710678,0,0)" />
    <rect
       style="opacity:1;fill:#14445c;fill-opacity:1;fill-rule:nonzero;stroke:none;stroke-width:18.45800018;stroke-linecap:round;stroke-miterlimit:4;stroke-dasharray:none;stroke-dashoffset:21.60000038;stroke-opacity:1"
       id="rect4259-1"
       width="20.486727"
       height="521.68268"
       x="-1129.0131"
       y="2591.262"
       transform="matrix(0.70710678,0.70710678,-0.70710678,0.70710678,0,0)" />
    <rect
       style="opacity:1;fill:#14445c;fill-opacity:1;fill-rule:nonzero;stroke:none;stroke-width:18.45800018;stroke-linecap:round;stroke-miterlimit:4;stroke-dasharray:none;stroke-dashoffset:21.60000038;stroke-opacity:1"
       id="rect4259-3"
       width="20.486727"
       height="521.68268"
       x="-1220.1024"
       y="2591.262"
       transform="matrix(0.70710678,0.70710678,-0.70710678,0.70710678,0,0)" />
    <rect
       style="opacity:1;fill:#14445c;fill-opacity:1;fill-rule:nonzero;stroke:none;stroke-width:18.45800018;stroke-linecap:round;stroke-miterlimit:4;stroke-dasharray:none;stroke-dashoffset:21.60000038;stroke-opacity:1"
       id="rect4259-29"
       width="20.486727"
       height="521.68268"
       x="-1083.4684"
       y="2591.262"
       transform="matrix(0.70710678,0.70710678,-0.70710678,0.70710678,0,0)" />
    <rect
       style="opacity:1;fill:#14445c;fill-opacity:1;fill-rule:nonzero;stroke:none;stroke-width:18.45800018;stroke-linecap:round;stroke-miterlimit:4;stroke-dasharray:none;stroke-dashoffset:21.60000038;stroke-opacity:1"
       id="rect4259-8"
       width="20.486727"
       height="521.68268"
       x="-946.83423"
       y="2591.262"
       transform="matrix(0.70710678,0.70710678,-0.70710678,0.70710678,0,0)" />
    <rect
       style="opacity:1;fill:#14445c;fill-opacity:1;fill-rule:nonzero;stroke:none;stroke-width:18.45800018;stroke-linecap:round;stroke-miterlimit:4;stroke-dasharray:none;stroke-dashoffset:21.60000038;stroke-opacity:1"
       id="rect4259-36"
       width="20.486727"
       height="521.68268"
       x="-1174.5577"
       y="2591.262"
       transform="matrix(0.70710678,0.70710678,-0.70710678,0.70710678,0,0)" />
    <rect
       style="opacity:1;fill:#14445c;fill-opacity:1;fill-rule:nonzero;stroke:none;stroke-width:18.45800018;stroke-linecap:round;stroke-miterlimit:4;stroke-dasharray:none;stroke-dashoffset:21.60000038;stroke-opacity:1"
       id="rect4259-55"
       width="20.486727"
       height="521.68268"
       x="-992.37891"
       y="2591.262"
       transform="matrix(0.70710678,0.70710678,-0.70710678,0.70710678,0,0)" />
    <rect
       style="opacity:1;fill:#14445c;fill-opacity:1;fill-rule:nonzero;stroke:none;stroke-width:18.45800018;stroke-linecap:round;stroke-miterlimit:4;stroke-dasharray:none;stroke-dashoffset:21.60000038;stroke-opacity:1"
       id="rect4259-76"
       width="20.486727"
       height="521.68268"
       x="-1447.8262"
       y="2591.262"
       transform="matrix(0.70710678,0.70710678,-0.70710678,0.70710678,0,0)" />
    <rect
       style="opacity:1;fill:#ff0c2f;fill-opacity:1;fill-rule:nonzero;stroke:none;stroke-width:18.45800018;stroke-linecap:round;stroke-miterlimit:4;stroke-dasharray:none;stroke-dashoffset:21.60000038;stroke-opacity:1"
       id="rect4259-20-4-5-9"
       width="468.21973"
       height="84.789825"
       x="1611.8069"
       y="-253.18591"
       transform="matrix(0.47205745,0.88156779,-0.88156779,0.47205745,0,0)" />
    <rect
       style="opacity:1;fill:#ffffff;fill-opacity:1;fill-rule:nonzero;stroke:none;stroke-width:18.45800018;stroke-linecap:round;stroke-miterlimit:4;stroke-dasharray:none;stroke-dashoffset:21.60000038;stroke-opacity:1"
       id="rect4603-6"
       width="1577.1428"
       height="674.28571"
       x="-1171.4082"
       y="1400.7468" />
    <rect
       style="opacity:1;fill:#ffffff;fill-opacity:1;fill-rule:nonzero;stroke:none;stroke-width:18.45800018;stroke-linecap:round;stroke-miterlimit:4;stroke-dasharray:none;stroke-dashoffset:21.60000038;stroke-opacity:1"
       id="rect4603-9"
       width="1577.1428"
       height="674.28571"
       x="762.38739"
       y="583.90973" />
    <circle
       style="opacity:0.46000001;fill:#000000;fill-opacity:1;fill-rule:nonzero;stroke:none;stroke-width:0.40000001;stroke-linecap:round;stroke-miterlimit:4;stroke-dasharray:none;stroke-dashoffset:21.60000038;stroke-opacity:1;filter:url(#filter4294)"
       id="path4641-5-3"
       cx="177.78683"
       cy="880.63629"
       r="162.68828" />
    <circle
       style="opacity:1;fill:#87c7e8;fill-opacity:1;fill-rule:nonzero;stroke:none;stroke-width:0.40000001;stroke-linecap:round;stroke-miterlimit:4;stroke-dasharray:none;stroke-dashoffset:21.60000038;stroke-opacity:1"
       id="path4641-5"
       cx="173.71338"
       cy="872.41382"
       r="162.68828" />
    <path
       sodipodi:type="spiral"
       style="opacity:0.58300003;fill:none;fill-rule:evenodd;stroke:#ff2e4c;stroke-width:31.5;stroke-linecap:round;stroke-linejoin:miter;stroke-miterlimit:4;stroke-dasharray:none;stroke-opacity:1"
       id="path4658"
       sodipodi:cx="179.93829"
       sodipodi:cy="874.44427"
       sodipodi:expansion="1.1"
       sodipodi:revolution="1.7"
       sodipodi:radius="140.08429"
       sodipodi:argument="-3.1415927"
       sodipodi:t0="0.25426301"
       d="m 208.2261,861.61769 c 17.76057,16.88944 10.26721,45.60727 -7.09729,59.56025 -27.58107,22.16235 -67.9188,10.4695 -87.07424,-16.85991 -26.86931,-38.33494 -10.62536,-91.11629 27.08792,-115.4342 49.25404,-31.75952 114.95693,-10.75357 144.45656,37.65053 36.77667,60.34454 10.86179,139.30776 -48.47545,174.02664 -4.49368,2.6293 -9.13625,5.0037 -13.89691,7.1114"
       transform="matrix(-0.70710678,-0.70710678,0.70710678,-0.70710678,91.947201,1367.2821)" />
    <path
       sodipodi:type="spiral"
       style="opacity:0.58300003;fill:none;fill-rule:evenodd;stroke:#ff2e4c;stroke-width:31.5;stroke-linecap:round;stroke-linejoin:miter;stroke-miterlimit:4;stroke-dasharray:none;stroke-opacity:1"
       id="path4658-3"
       sodipodi:cx="179.93829"
       sodipodi:cy="874.44427"
       sodipodi:expansion="1.1"
       sodipodi:revolution="1.8"
       sodipodi:radius="140.08429"
       sodipodi:argument="-3.1415927"
       sodipodi:t0="0.25426301"
       d="m 209.90632,866.28103 c 14.17589,19.3898 2.39669,45.87528 -16.78341,56.56522 -29.95931,16.6977 -66.68924,-0.77076 -80.69741,-30.0116 -19.473773,-40.64978 4.10576,-88.28691 43.77743,-105.52513 51.52205,-22.38746 110.46119,7.55898 130.90535,57.94183 25.38978,62.57087 -11.10488,133.09602 -72.42463,156.74635 -24.75361,9.5472 -52.15422,11.3859 -78.03373,5.6747"
       transform="matrix(-0.70710678,-0.70710678,0.70710678,-0.70710678,91.503741,1360.696)" />
    <path
       sodipodi:type="spiral"
       style="opacity:0.58300003;fill:none;fill-rule:evenodd;stroke:#ff2e4c;stroke-width:31.5;stroke-linecap:round;stroke-linejoin:miter;stroke-miterlimit:4;stroke-dasharray:none;stroke-opacity:1"
       id="path4658-6"
       sodipodi:cx="179.93829"
       sodipodi:cy="874.44427"
       sodipodi:expansion="1.1"
       sodipodi:revolution="1.6"
       sodipodi:radius="140.08429"
       sodipodi:argument="-3.1415927"
       sodipodi:t0="0.25426301"
       d="m 205.82543,857.28102 c 20.98333,13.71618 18.19013,44.06538 3.18305,61.00947 -24.27127,27.40405 -67.45718,22.1859 -91.5895,-2.39571 -34.172692,-34.80892 -26.285876,-91.83113 8.33808,-123.17143 45.48476,-41.17109 116.90768,-30.46788 155.52644,14.52872 35.63778,41.52332 38.80707,102.61406 11.98536,149.53169"
       transform="matrix(-0.8660254,-0.5,0.5,-0.8660254,306.63954,1462.5682)" />
    <path
       sodipodi:type="spiral"
       style="opacity:0.58300003;fill:none;fill-rule:evenodd;stroke:#ff2e4c;stroke-width:31.5;stroke-linecap:round;stroke-linejoin:miter;stroke-miterlimit:4;stroke-dasharray:none;stroke-opacity:1"
       id="path4658-7"
       sodipodi:cx="179.93829"
       sodipodi:cy="874.44427"
       sodipodi:expansion="1.1"
       sodipodi:revolution="1.9"
       sodipodi:radius="140.08429"
       sodipodi:argument="-3.1415927"
       sodipodi:t0="0.25426301"
       d="m 210.82331,871.15228 c 10.3414,21.19916 -5.24752,44.91526 -25.6767,52.15573 -31.41816,11.13519 -63.88742,-11.34741 -72.6867,-41.67131 -12.12892,-41.79839 17.70979,-83.53824 58.2502,-93.76999 52.36803,-13.21684 103.69459,24.26331 115.29871,75.27166 14.35796,63.11339 -30.96891,124.25735 -92.65141,137.20233 -46.60991,9.7817 -95.54,-7.9873 -126.749668,-43.55692"
       transform="matrix(-0.96592582,-0.25881904,0.25881904,-0.96592582,-176.50155,1508.4477)" />
    <path
       sodipodi:type="spiral"
       style="opacity:0.58300003;fill:none;fill-rule:evenodd;stroke:#ff2e4c;stroke-width:31.5;stroke-linecap:round;stroke-linejoin:miter;stroke-miterlimit:4;stroke-dasharray:none;stroke-opacity:1"
       id="path4658-6-5"
       sodipodi:cx="102.20337"
       sodipodi:cy="-604.05652"
       sodipodi:expansion="1.1"
       sodipodi:revolution="1.7"
       sodipodi:radius="140.08429"
       sodipodi:argument="-3.1415927"
       sodipodi:t0="0.25426301"
       d="m 130.49118,-616.8831 c 17.76057,16.88944 10.26721,45.60726 -7.0973,59.56025 -27.581059,22.16234 -67.918796,10.4695 -87.074232,-16.85991 -26.8693118,-38.33495 -10.625367,-91.11629 27.087919,-115.43421 49.254043,-31.75951 114.956933,-10.75357 144.456563,37.65054 36.77667,60.34454 10.86179,139.30776 -48.47546,174.02665 -4.49367,2.6293 -9.13625,5.00373 -13.8969,7.11135"
       transform="scale(-1,-1)" />
    <path
       sodipodi:type="spiral"
       style="opacity:0.58300003;fill:none;fill-rule:evenodd;stroke:#ff2e4c;stroke-width:31.5;stroke-linecap:round;stroke-linejoin:miter;stroke-miterlimit:4;stroke-dasharray:none;stroke-opacity:1"
       id="path4658-35"
       sodipodi:cx="179.93829"
       sodipodi:cy="874.44427"
       sodipodi:expansion="1.1"
       sodipodi:revolution="1.7"
       sodipodi:radius="140.08429"
       sodipodi:argument="-3.1415927"
       sodipodi:t0="0.25426301"
       d="m 208.2261,861.61769 c 17.76057,16.88944 10.26721,45.60727 -7.09729,59.56025 -27.58107,22.16235 -67.9188,10.4695 -87.07424,-16.85991 -26.86931,-38.33494 -10.62536,-91.11629 27.08792,-115.4342 49.25404,-31.75952 114.95693,-10.75357 144.45656,37.65053 36.77667,60.34454 10.86179,139.30776 -48.47545,174.02664 -4.49368,2.6293 -9.13625,5.0037 -13.89691,7.1114"
       transform="matrix(0.73780002,-0.73780002,-0.73780002,-0.73780002,341.92894,1919.4815)" />
    <path
       sodipodi:type="spiral"
       style="opacity:0.58300003;fill:none;fill-rule:evenodd;stroke:#ff2e4c;stroke-width:31.5;stroke-linecap:round;stroke-linejoin:miter;stroke-miterlimit:4;stroke-dasharray:none;stroke-opacity:1"
       id="path4658-3-6"
       sodipodi:cx="179.93829"
       sodipodi:cy="874.44427"
       sodipodi:expansion="1.1"
       sodipodi:revolution="1.8"
       sodipodi:radius="140.08429"
       sodipodi:argument="-3.1415927"
       sodipodi:t0="0.25426301"
       d="m 209.90632,866.28103 c 14.17589,19.3898 2.39669,45.87528 -16.78341,56.56522 -29.95931,16.6977 -66.68924,-0.77076 -80.69741,-30.0116 -19.473773,-40.64978 4.10576,-88.28691 43.77743,-105.52513 51.52205,-22.38746 110.46119,7.55898 130.90535,57.94183 25.38978,62.57087 -11.10488,133.09602 -72.42463,156.74635 -24.75361,9.5472 -52.15422,11.3859 -78.03373,5.6747"
       transform="matrix(-0.99150281,0.13008524,-0.13008524,-0.99150281,478.47564,1734.316)" />
    <path
       sodipodi:type="spiral"
       style="opacity:0.58300003;fill:none;fill-rule:evenodd;stroke:#ff2e4c;stroke-width:31.5;stroke-linecap:round;stroke-linejoin:miter;stroke-miterlimit:4;stroke-dasharray:none;stroke-opacity:1"
       id="path4658-6-2"
       sodipodi:cx="179.93829"
       sodipodi:cy="874.44427"
       sodipodi:expansion="1.1"
       sodipodi:revolution="1.9"
       sodipodi:radius="140.08429"
       sodipodi:argument="-3.1415927"
       sodipodi:t0="0.25426301"
       d="m 210.82331,871.15228 c 10.3414,21.19916 -5.24752,44.91526 -25.6767,52.15573 -31.41816,11.13519 -63.88742,-11.34741 -72.6867,-41.67131 -12.12892,-41.79839 17.70979,-83.53824 58.2502,-93.76999 52.36803,-13.21684 103.69459,24.26331 115.29871,75.27166 14.35796,63.11339 -30.96891,124.25735 -92.65141,137.20233 -46.60991,9.7817 -95.54,-7.9873 -126.749668,-43.55692"
       transform="matrix(-0.31093436,1.0499174,1.0499174,0.31093436,-1333.7486,861.44474)"
       inkscape:transform-center-x="-4.2850751"
       inkscape:transform-center-y="30.006652" />
    <path
       sodipodi:type="spiral"
       style="opacity:0.58300003;fill:none;fill-rule:evenodd;stroke:#ff2e4c;stroke-width:31.5;stroke-linecap:round;stroke-linejoin:miter;stroke-miterlimit:4;stroke-dasharray:none;stroke-opacity:1"
       id="path4658-7-9"
       sodipodi:cx="179.93829"
       sodipodi:cy="874.44427"
       sodipodi:expansion="1.1"
       sodipodi:revolution="1.9"
       sodipodi:radius="140.08429"
       sodipodi:argument="-3.1415927"
       sodipodi:t0="0.25426301"
       d="m 210.82331,871.15228 c 10.3414,21.19916 -5.24752,44.91526 -25.6767,52.15573 -31.41816,11.13519 -63.88742,-11.34741 -72.6867,-41.67131 -12.12892,-41.79839 17.70979,-83.53824 58.2502,-93.76999 52.36803,-13.21684 103.69459,24.26331 115.29871,75.27166 14.35796,63.11339 -30.96891,124.25735 -92.65141,137.20233 -46.60991,9.7817 -95.54,-7.9873 -126.749668,-43.55692"
       transform="matrix(-0.99730464,0.07337194,-0.07337194,-0.99730464,429.75203,1753.4403)" />
    <path
       sodipodi:type="spiral"
       style="opacity:0.58300003;fill:none;fill-rule:evenodd;stroke:#ff2e4c;stroke-width:31.5;stroke-linecap:round;stroke-linejoin:miter;stroke-miterlimit:4;stroke-dasharray:none;stroke-opacity:1"
       id="path4658-6-5-1"
       sodipodi:cx="-325.31018"
       sodipodi:cy="-1192.9391"
       sodipodi:expansion="1.1"
       sodipodi:revolution="1.7046988"
       sodipodi:radius="140.51022"
       sodipodi:argument="-3.1415927"
       sodipodi:t0="0.2731826"
       d="m -292.37667,-1200.15 c 14.0977,21.7475 -0.0512,49.6071 -21.36502,60.0466 -33.12528,16.2248 -71.60533,-4.5451 -85.02847,-36.7515 -18.60956,-44.6501 9.25638,-94.4185 52.74028,-110.7153 56.37599,-21.1285 117.83368,14.1229 136.96487,69.179 22.4686,64.6605 -14.85883,135.0708 -76.78877,160.3088"
       transform="matrix(-0.97262212,0.23239237,-0.23239237,-0.97262212,-400.96503,-199.9125)" />
    <path
       sodipodi:type="spiral"
       style="opacity:0.58300003;fill:none;fill-rule:evenodd;stroke:#ff2e4c;stroke-width:31.5;stroke-linecap:round;stroke-linejoin:miter;stroke-miterlimit:4;stroke-dasharray:none;stroke-opacity:1"
       id="path4658-6-5-1-2"
       sodipodi:cx="-325.31018"
       sodipodi:cy="-1192.9391"
       sodipodi:expansion="1.1"
       sodipodi:revolution="1.6"
       sodipodi:radius="140.08429"
       sodipodi:argument="-3.1415927"
       sodipodi:t0="0.25426301"
       d="m -299.42304,-1210.1023 c 20.98333,13.7161 18.19013,44.0653 3.18304,61.0094 -24.27127,27.4041 -67.45718,22.1859 -91.58949,-2.3957 -34.1727,-34.8089 -26.28588,-91.8311 8.33807,-123.1714 45.48476,-41.1711 116.90769,-30.4679 155.52645,14.5287 35.63778,41.5233 38.80707,102.6141 11.98536,149.5317"
       transform="matrix(-0.97377244,0.22752415,-0.22752415,-0.97377244,-401.86015,-205.4112)" />
    <path
       sodipodi:type="spiral"
       style="opacity:0.58300003;fill:none;fill-rule:evenodd;stroke:#ff2e4c;stroke-width:31.5;stroke-linecap:round;stroke-linejoin:miter;stroke-miterlimit:4;stroke-dasharray:none;stroke-opacity:1"
       id="path4658-6-2-7"
       sodipodi:cx="179.93829"
       sodipodi:cy="874.44427"
       sodipodi:expansion="1.1"
       sodipodi:revolution="1.9"
       sodipodi:radius="140.08429"
       sodipodi:argument="-3.1415927"
       sodipodi:t0="0.25426301"
       d="m 210.82331,871.15228 c 10.3414,21.19916 -5.24752,44.91526 -25.6767,52.15573 -31.41816,11.13519 -63.88742,-11.34741 -72.6867,-41.67131 -12.12892,-41.79839 17.70979,-83.53824 58.2502,-93.76999 52.36803,-13.21684 103.69459,24.26331 115.29871,75.27166 14.35796,63.11339 -30.96891,124.25735 -92.65141,137.20233 -46.60991,9.7817 -95.54,-7.9873 -126.749668,-43.55692"
       transform="matrix(0.33482696,-1.0425439,-1.0425439,-0.33482696,350.50588,1833.6443)"
       inkscape:transform-center-x="3.9549828"
       inkscape:transform-center-y="-31.153208" />
    <path
       style="fill:none;fill-rule:evenodd;stroke:#000000;stroke-width:1px;stroke-linecap:butt;stroke-linejoin:miter;stroke-opacity:1"
       d="M -1388.5714,-490.49493 C -958.78462,-950.53308 -481.54949,-1094.5368 22.857147,-1004.7806"
       id="path4296"
       inkscape:connector-curvature="0"
       sodipodi:nodetypes="cc" />
    <path
       style="fill:none;fill-rule:evenodd;stroke:#000000;stroke-width:1px;stroke-linecap:butt;stroke-linejoin:miter;stroke-opacity:1"
       d="M -1460,-604.78064 -237.14286,-1387.6379"
       id="path4298"
       inkscape:connector-curvature="0"
       sodipodi:nodetypes="cc" />
    <path
       style="fill:none;fill-rule:evenodd;stroke:#000000;stroke-width:1px;stroke-linecap:butt;stroke-linejoin:miter;stroke-opacity:1"
       d="m -1531.4285,-716.2092 c 221.4298,-95.39154 817.07754,-430.7153 1157.14279,-888.5714"
       id="path4300"
       inkscape:connector-curvature="0"
       sodipodi:nodetypes="cc" />
    <rect
       style="opacity:1;fill:#dfdfdf;fill-opacity:1;fill-rule:nonzero;stroke:none;stroke-width:31.5;stroke-linecap:round;stroke-miterlimit:4;stroke-dasharray:none;stroke-dashoffset:21.60000038;stroke-opacity:1"
       id="rect4304"
       width="1880"
       height="1880"
       x="931.42853"
       y="-2153.3521" />
    <path
       style="fill:none;fill-rule:evenodd;stroke:#000000;stroke-width:1px;stroke-linecap:butt;stroke-linejoin:miter;stroke-opacity:1"
       d="m -1612.1622,-836.37611 c 610.0189,-160.66815 989.09821,-567.34049 1094.28568,-1000.00009"
       id="path4300-0"
       inkscape:connector-curvature="0"
       sodipodi:nodetypes="cc" />
    <path
       style="fill:none;fill-rule:evenodd;stroke:#000000;stroke-width:1px;stroke-linecap:butt;stroke-linejoin:miter;stroke-opacity:1"
       d="m -1298.4417,-375.85284 c 396.83906,-723.34396 991.28557,-466.24674 1537.14288,-305.71428"
       id="path4296-9"
       inkscape:connector-curvature="0"
       sodipodi:nodetypes="cc" />
    <path
       style="fill:none;fill-rule:evenodd;stroke:#000000;stroke-width:1px;stroke-linecap:butt;stroke-linejoin:miter;stroke-opacity:1"
       d="M -1971.8178,-1367.9633 -707.10678,514.96106"
       id="path4338"
       inkscape:connector-curvature="0" />
    <path
       style="fill:none;fill-rule:evenodd;stroke:#000000;stroke-width:1px;stroke-linecap:butt;stroke-linejoin:miter;stroke-opacity:1"
       d="M -789.49837,-2214.8142 475.21266,-331.88991"
       id="path4338-3"
       inkscape:connector-curvature="0" />
    <path
       style="fill:none;fill-rule:evenodd;stroke:#ffffff;stroke-width:120.39674377;stroke-linecap:round;stroke-linejoin:miter;stroke-miterlimit:4;stroke-dasharray:none;stroke-opacity:1"
       d="M 708.81998,-242.99135 C 1513.1267,-1245.8667 2484.1038,-1493.8917 3407.0424,-1295.1176"
       id="path4296-6"
       inkscape:connector-curvature="0"
       sodipodi:nodetypes="cc" />
    <path
       style="fill:none;fill-rule:evenodd;stroke:#ffffff;stroke-width:120.39674377;stroke-linecap:round;stroke-linejoin:miter;stroke-miterlimit:4;stroke-dasharray:none;stroke-opacity:1"
       d="M 804.40514,-709.43329 3037.1131,-2138.7835"
       id="path4298-0"
       inkscape:connector-curvature="0"
       sodipodi:nodetypes="cc" />
    <path
       style="fill:none;fill-rule:evenodd;stroke:#ffffff;stroke-width:120.39674377;stroke-linecap:round;stroke-linejoin:miter;stroke-miterlimit:4;stroke-dasharray:none;stroke-opacity:1"
       d="m 859.31041,-1114.3637 c 486.19589,44.3342 1179.63299,-561.8267 1660.17739,-1533.4711"
       id="path4300-6"
       inkscape:connector-curvature="0"
       sodipodi:nodetypes="cc" />
    <path
       style="fill:none;fill-rule:evenodd;stroke:#ffffff;stroke-width:120.39674377;stroke-linecap:round;stroke-linejoin:miter;stroke-miterlimit:4;stroke-dasharray:none;stroke-opacity:1"
       d="m 703.55083,-1405.4013 c 649.97067,376.7706 1221.98397,-592.5732 1456.51857,-1454.0765"
       id="path4300-0-2"
       inkscape:connector-curvature="0"
       sodipodi:nodetypes="cc" />
    <path
       style="fill:none;fill-rule:evenodd;stroke:#ffffff;stroke-width:120.39674377;stroke-linecap:round;stroke-linejoin:miter;stroke-miterlimit:4;stroke-dasharray:none;stroke-opacity:1"
       d="M 1172.9331,-155.71641 C 1394.7654,-1386.5262 2648.7189,-835.94908 3664.2999,-544.18759"
       id="path4296-9-6"
       inkscape:connector-curvature="0"
       sodipodi:nodetypes="cc" />
    <rect
       style="opacity:1;fill:url(#linearGradient4436);fill-opacity:1.0;fill-rule:nonzero;stroke:none;stroke-width:31.5;stroke-linecap:round;stroke-miterlimit:4;stroke-dasharray:none;stroke-dashoffset:21.60000038;stroke-opacity:1"
       id="rect4304-8"
       width="1880"
       height="1880"
       x="-13976.276"
       y="383.74194" />
    <path
       style="fill:none;fill-rule:evenodd;stroke:#000000;stroke-width:1px;stroke-linecap:butt;stroke-linejoin:miter;stroke-opacity:1"
       d="M -15697.203,322.27984 -14432.492,2205.204"
       id="path4338-3-7"
       inkscape:connector-curvature="0" />
    <path
       style="fill:none;fill-rule:evenodd;stroke:#ff0042;stroke-width:300;stroke-linecap:butt;stroke-linejoin:miter;stroke-miterlimit:4;stroke-dasharray:none;stroke-opacity:1"
       d="m -12129.401,3013.7418 c -481.25,458.3333 -944.384,-2737.00033 -1575,-2156.24999"
       id="path4444"
       inkscape:connector-curvature="0"
       sodipodi:nodetypes="cc" />
    <path
       style="fill:none;fill-rule:evenodd;stroke:url(#linearGradient4264);stroke-width:300;stroke-linecap:butt;stroke-linejoin:miter;stroke-miterlimit:4;stroke-dasharray:none;stroke-opacity:1"
       d="m -12129.219,3013.1386 c -481.25,458.3333 -944.384,-2737.00031 -1575,-2156.24997"
       id="path4444-6"
       inkscape:connector-curvature="0"
       sodipodi:nodetypes="cc" />
    <path
       style="fill:none;fill-rule:evenodd;stroke:#ffffff;stroke-width:250;stroke-linecap:round;stroke-linejoin:miter;stroke-miterlimit:4;stroke-dasharray:none;stroke-opacity:1"
       d="M -14136.829,2272.4051 -12099.561,576.06615"
       id="path4298-0-2"
       inkscape:connector-curvature="0"
       sodipodi:nodetypes="cc" />
    <path
       style="fill:none;fill-rule:evenodd;stroke:#ffffff;stroke-width:250;stroke-linecap:round;stroke-linejoin:miter;stroke-miterlimit:4;stroke-dasharray:none;stroke-opacity:1"
       d="m -14125.022,1724.0409 c 933.894,-745.1885 1063.149,-1144.00616 957.25,-2089.44106"
       id="path4300-0-2-2"
       inkscape:connector-curvature="0"
       sodipodi:nodetypes="cc" />
    <path
       style="fill:none;fill-rule:evenodd;stroke:#ffffff;stroke-width:250;stroke-linecap:round;stroke-linejoin:miter;stroke-miterlimit:4;stroke-dasharray:none;stroke-opacity:1"
       d="m -13904.449,2600.5766 c 852.625,-741.4035 1155.267,-979.2852 2429.669,-367.9302"
       id="path4296-9-6-3"
       inkscape:connector-curvature="0"
       sodipodi:nodetypes="cc" />
    <path
       style="fill:none;fill-rule:evenodd;stroke:#ff0042;stroke-width:300;stroke-linecap:butt;stroke-linejoin:miter;stroke-miterlimit:4;stroke-dasharray:none;stroke-opacity:1"
       d="m -11732.526,3576.2418 c -537.501,14.0398 -2382.596,-2278.9374 -1962.5,-2724.99999"
       id="path4440"
       inkscape:connector-curvature="0"
       sodipodi:nodetypes="cc" />
    <path
       style="fill:none;fill-rule:evenodd;stroke:url(#linearGradient4241);stroke-width:300;stroke-linecap:butt;stroke-linejoin:miter;stroke-miterlimit:4;stroke-dasharray:none;stroke-opacity:1"
       d="m -11728.714,3581.3903 c -537.501,14.0398 -2382.596,-2278.9373 -1962.5,-2725.00004"
       id="path4440-3"
       inkscape:connector-curvature="0"
       sodipodi:nodetypes="cc" />
  </g>
</svg>
